<svg xmlns="http://www.w3.org/2000/svg" aria-hidden="true" style="position:absolute;width:0;height:0;overflow:hidden">
  <defs>
    <symbol id="icon-ellipse-20" viewBox="0 0 32 32">
      <path fill="#ffc700" d="M32 16c0 8.837-7.163 16-16 16S0 24.837 0 16 7.163 0 16 0s16 7.163 16 16z" style="fill:var(--color1, #ffc700)"/>
    </symbol>
    <symbol id="icon-pasport" viewBox="0 0 32 32">
      <path fill="#ffc700" d="M23.529 11.765c0 6.497-5.267 11.765-11.765 11.765S-.001 18.263-.001 11.765C-.001 5.268 5.266 0 11.764 0s11.765 5.267 11.765 11.765z" style="fill:var(--color1, #ffc700)"/>
      <path fill="#282828" d="M28.25 25.25h-6v1.5h6v-1.5zM28.25 22.25h-6v1.5h6v-1.5zM28.25 19.25h-6v1.5h6v-1.5z" style="fill:var(--color2, #282828)"/>
      <path fill="#282828" d="M30.5 13.25h-9v1.5h8.25v13.5h-19.5v-13.5h8.25v-1.5h-9a.75.75 0 0 0-.75.75v15c0 .414.336.75.75.75h21a.75.75 0 0 0 .75-.75V14a.75.75 0 0 0-.75-.75z" style="fill:var(--color2, #282828)"/>
      <path fill="#282828" d="M17.75 15.25v-5h4.5v5a.75.75 0 0 1-.75.75h-3a.75.75 0 0 1-.75-.75zm1.5-.75h1.5v-2.75h-1.5v2.75zM20.75 23.25c0-1.22-.733-2.271-1.782-2.739.179-.384.282-.81.282-1.261 0-1.654-1.346-3-3-3s-3 1.346-3 3c0 .451.103.877.282 1.261a3.003 3.003 0 0 0-1.782 2.739v3.5h9v-3.5zm-4.5-5.5c.827 0 1.5.673 1.5 1.5s-.673 1.5-1.5 1.5-1.5-.673-1.5-1.5.673-1.5 1.5-1.5zm3 7.5h-6v-2c0-.779.597-1.421 1.357-1.493.472.311 1.036.493 1.643.493s1.171-.182 1.643-.493a1.501 1.501 0 0 1 1.357 1.493v2z" style="fill:var(--color2, #282828)"/>
    </symbol>
    <symbol id="icon-ellipse-17" viewBox="0 0 32 32">
      <path fill="#ffc700" d="M32 16c0 8.837-7.163 16-16 16S0 24.837 0 16 7.163 0 16 0s16 7.163 16 16z" style="fill:var(--color1, #ffc700)"/>
    </symbol>
    <symbol id="icon-time" viewBox="0 0 32 32">
      <path fill="#0499dd" d="M16 31A15.003 15.003 0 0 1 1.287 13.073a15.003 15.003 0 0 1 27.184-5.406 15.003 15.003 0 0 1-1.866 18.941 15.002 15.002 0 0 1-10.607 4.394zm0-28c-2.571 0-5.085.762-7.222 2.191S4.974 8.65 3.99 11.025a13.004 13.004 0 0 0 2.818 14.167 13.002 13.002 0 0 0 20.001-1.97A13 13 0 0 0 16 3z" style="fill:var(--color3, #0499dd)"/>
      <path fill="#0499dd" d="m20.24 21.66-4.95-4.95A.993.993 0 0 1 15 16V8h2v7.59l4.66 4.65-1.42 1.42z" style="fill:var(--color3, #0499dd)"/>
    </symbol>
    <symbol id="icon-cost" viewBox="0 0 32 32">
      <path fill="none" stroke="#0499dd" stroke-linecap="round" stroke-linejoin="round" stroke-miterlimit="10" stroke-width=".873" d="M20.694 9.429c3.629 0 6.571-1.051 6.571-2.347s-2.942-2.347-6.571-2.347c-3.629 0-6.571 1.051-6.571 2.347s2.942 2.347 6.571 2.347z" style="stroke:var(--color3, #0499dd)"/>
      <path fill="none" stroke="#0499dd" stroke-linecap="round" stroke-linejoin="round" stroke-miterlimit="10" stroke-width=".873" d="M14.123 7.552v2.816c0 1.296 2.941 2.347 6.571 2.347s6.571-1.051 6.571-2.347V7.552" style="stroke:var(--color3, #0499dd)"/>
      <path fill="none" stroke="#0499dd" stroke-linecap="round" stroke-linejoin="round" stroke-miterlimit="10" stroke-width=".873" d="M17.666 15.737c.906.168 1.936.263 3.027.263 3.63 0 6.571-1.051 6.571-2.347v-2.816M14.123 10.837v2.004" style="stroke:var(--color3, #0499dd)"/>
      <path fill="none" stroke="#0499dd" stroke-linecap="round" stroke-linejoin="round" stroke-miterlimit="10" stroke-width=".873" d="M17.889 19.062c.85.144 1.801.224 2.804.224 3.63 0 6.571-1.05 6.571-2.347v-2.816" style="stroke:var(--color3, #0499dd)"/>
      <path fill="none" stroke="#0499dd" stroke-linecap="round" stroke-linejoin="round" stroke-miterlimit="10" stroke-width=".873" d="M17.853 22.341c.859.147 1.823.23 2.84.23 3.63 0 6.571-1.05 6.571-2.347v-2.816M11.306 17.408c3.629 0 6.571-1.051 6.571-2.347s-2.942-2.347-6.571-2.347c-3.629 0-6.571 1.051-6.571 2.347s2.942 2.347 6.571 2.347z" style="stroke:var(--color3, #0499dd)"/>
      <path fill="none" stroke="#0499dd" stroke-linecap="round" stroke-linejoin="round" stroke-miterlimit="10" stroke-width=".873" d="M4.736 15.531v2.816c0 1.296 2.941 2.347 6.571 2.347s6.571-1.05 6.571-2.347v-2.816" style="stroke:var(--color3, #0499dd)"/>
      <path fill="none" stroke="#0499dd" stroke-linecap="round" stroke-linejoin="round" stroke-miterlimit="10" stroke-width=".873" d="M4.736 18.816v2.816c0 1.296 2.941 2.347 6.571 2.347s6.571-1.05 6.571-2.347v-2.816" style="stroke:var(--color3, #0499dd)"/>
      <path fill="none" stroke="#0499dd" stroke-linecap="round" stroke-linejoin="round" stroke-miterlimit="10" stroke-width=".873" d="M4.736 22.101v2.816c0 1.296 2.941 2.347 6.571 2.347s6.571-1.05 6.571-2.347v-2.816" style="stroke:var(--color3, #0499dd)"/>
    </symbol>
    <symbol id="icon-calendar" viewBox="0 0 32 32">
      <path fill="#0499dd" d="M1.6 6.4c0-1.76 1.44-3.2 3.2-3.2h22.4a3.2 3.2 0 0 1 3.2 3.2v22.4a3.2 3.2 0 0 1-3.2 3.2H4.8a3.2 3.2 0 0 1-3.2-3.2V6.4zm3.2 3.2v19.2h22.4V9.6H4.8zM8 0h3.2v3.2H8V0zm12.8 0H24v3.2h-3.2V0zM8 14.4h3.2v3.2H8v-3.2zm0 6.4h3.2V24H8v-3.2zm6.4-6.4h3.2v3.2h-3.2v-3.2zm0 6.4h3.2V24h-3.2v-3.2zm6.4-6.4H24v3.2h-3.2v-3.2zm0 6.4H24V24h-3.2v-3.2z" style="fill:var(--color3, #0499dd)"/>
    </symbol>
    <symbol id="icon-clients" viewBox="0 0 32 32">
      <path fill="#0499dd" d="M22 18.667c-2 0-3.6.533-4.8 1.2 1.867 1.6 2.667 3.467 2.8 3.6l.133.267v2.933H30.8V24c-.133 0-2.267-5.333-8.8-5.333zM22 16a4.667 4.667 0 1 0 0-9.334A4.667 4.667 0 0 0 22 16zM5.334 11.333c0-2.533 2.133-4.667 4.667-4.667s4.667 2.133 4.667 4.667c0 2.533-2.133 4.667-4.667 4.667s-4.667-2.133-4.667-4.667zM10 18.667C3.467 18.667 1.333 24 1.333 24v2.667h17.333V24s-2.133-5.333-8.667-5.333z" style="fill:var(--color3, #0499dd)"/>
    </symbol>
    <symbol id="icon-group" viewBox="0 0 25 32">
      <path fill="#0499dd" d="M24.909 12.193C24.909 5.71 19.688.489 13.205.489S1.501 5.71 1.501 12.193c0 6.483 11.704 18.589 11.704 18.589s11.704-12.106 11.704-18.589zm-17.154-.23c0-2.983 2.467-5.451 5.451-5.451s5.45 2.41 5.45 5.451a5.449 5.449 0 0 1-5.45 5.451c-2.983 0-5.451-2.467-5.451-5.451z" style="fill:var(--color3, #0499dd)"/>
    </symbol>
    <symbol id="icon-heart" viewBox="0 0 32 32">
      <path stroke-linecap="round" stroke-linejoin="round" stroke-width="2.667" d="M27.787 6.147a7.326 7.326 0 0 0-10.373 0L16.001 7.56l-1.413-1.413a7.333 7.333 0 0 0-10.374 0 7.333 7.333 0 0 0 0 10.374l11.787 11.787 11.787-11.787a7.345 7.345 0 0 0 2.15-5.187 7.33 7.33 0 0 0-2.15-5.187z"/>
    </symbol>
    <symbol id="icon-menu" viewBox="0 0 32 32">
      <path d="M2 5.6h28a2 2 0 1 1 0 4H2a2 2 0 1 1 0-4zM2 13.6h28a2 2 0 1 1 0 4H2a2 2 0 1 1 0-4zM2 21.6h28a2 2 0 1 1 0 4H2a2 2 0 1 1 0-4z"/>
    </symbol>
    <symbol id="icon-mail" viewBox="0 0 32 32">
      <path d="M29.182 7.957a.752.752 0 0 0-1.049-.153l-12.098 9.03a.253.253 0 0 1-.3 0l-11.86-9.07a.742.742 0 0 0-.555-.147.736.736 0 0 0-.497.289.76.76 0 0 0-.147.555.736.736 0 0 0 .289.497l9.325 7.133-9.222 6.95a.764.764 0 0 0-.295.496.766.766 0 0 0 .142.56.75.75 0 0 0 .497.296.766.766 0 0 0 .56-.142l9.557-7.215 1.295 1a1.746 1.746 0 0 0 2.107.015l1.36-1.015 9.67 7.215a.749.749 0 0 0 1.092-.985.743.743 0 0 0-.196-.218l-9.315-6.96L29.03 9a.75.75 0 0 0 .152-1.043z"/>
      <path stroke-width=".842" d="M28.25 4.75H3.75A3.752 3.752 0 0 0 0 8.5v15a3.752 3.752 0 0 0 3.75 3.75h24.5A3.752 3.752 0 0 0 32 23.5v-15a3.752 3.752 0 0 0-3.75-3.75zM30.5 23.5a2.25 2.25 0 0 1-2.25 2.25H3.75A2.25 2.25 0 0 1 1.5 23.5v-15a2.25 2.25 0 0 1 2.25-2.25h24.5A2.25 2.25 0 0 1 30.5 8.5v15z"/>
    </symbol>
    <symbol id="icon-tg" viewBox="0 0 32 32">
      <path stroke-linecap="round" stroke-linejoin="round" stroke-miterlimit="10" stroke-width="2.24" d="m29.863 6.437-4.208 19.845c-.317 1.401-1.145 1.749-2.322 1.089l-6.412-4.725-3.094 2.976c-.342.342-.629.629-1.289.629l.461-6.53L24.882 8.983c.517-.461-.112-.716-.803-.255l-14.69 9.25-6.324-1.979c-1.376-.43-1.401-1.376.286-2.036l24.737-9.53c1.145-.429 2.148.255 1.774 2.004z"/>
    </symbol>
    <symbol id="icon-viber" viewBox="0 0 32 32">
      <path d="M31.625 15.794c-.006 2.706-.594 5.094-1.781 7.313a14.952 14.952 0 0 1-4.606 5.212 14.89 14.89 0 0 1-5.619 2.456 15.358 15.358 0 0 1-6.769-.119 14.001 14.001 0 0 1-3.394-1.306.613.613 0 0 0-.531-.044c-2.356.756-4.713 1.506-7.069 2.256-.269.087-.531.169-.8.269-.188.069-.2 0-.15-.156.275-.806.544-1.612.819-2.425A722.107 722.107 0 0 1 3.5 23.988c.081-.231-.038-.381-.131-.544a14.56 14.56 0 0 1-1.587-4.081c-.706-3.1-.456-6.137.731-9.081a14.859 14.859 0 0 1 2.925-4.575 15.082 15.082 0 0 1 5.681-3.844c2.044-.794 4.156-1.1 6.331-.969 2.981.181 5.694 1.169 8.075 2.969 3.081 2.325 5.019 5.381 5.794 9.175.206.969.281 1.95.306 2.756zM16.406 3.425c-.581-.025-1.262.044-1.944.144a6.942 6.942 0 0 0-.794.163c-4.063 1.031-6.981 3.456-8.7 7.275-.994 2.206-1.262 4.537-.888 6.925a12.307 12.307 0 0 0 2.087 5.194.52.52 0 0 1 .069.519c-.463 1.356-.912 2.719-1.369 4.081-.025.075-.1.163-.031.231.069.075.156-.006.231-.031 1.369-.437 2.737-.869 4.094-1.325.313-.106.538-.056.806.106 3.069 1.844 6.35 2.331 9.806 1.413 2.625-.694 4.788-2.125 6.5-4.238 1.656-2.044 2.581-4.381 2.769-6.994a12.33 12.33 0 0 0-.969-5.819c-1.006-2.344-2.575-4.219-4.694-5.612-2.075-1.362-4.369-2.063-6.975-2.031z"/>
      <path d="M8.944 12.35c.025-1.406.575-2.563 1.65-3.463a1.295 1.295 0 0 1 1.081-.294c.175.025.356.05.525.031.425-.031.669.206.8.556.4 1.05.787 2.106 1.181 3.156.075.2.056.381-.037.569-.244.506-.631.9-1.019 1.294-.338.344-.356.456-.125.875 1.119 2.025 2.662 3.6 4.8 4.556.106.044.2.119.3.163.269.131.512.119.738-.113.438-.444.844-.919 1.238-1.406.306-.381.45-.437.881-.244 1.05.487 2.05 1.056 3.069 1.606.338.181.375.431.325.888-.206 1.856-1.625 2.7-3.244 2.969a3.341 3.341 0 0 1-1.569-.125c-1.5-.475-2.975-1.025-4.3-1.887-1.238-.806-2.3-1.812-3.231-2.956-.906-1.119-1.713-2.3-2.381-3.581-.375-.731-.681-1.869-.681-2.594z"/>
    </symbol>
    <symbol id="icon-facebook" viewBox="0 0 32 32">
      <path stroke-width="2.133" d="M22.796 12.506a.213.213 0 0 0-.212-.235h-4.079v-2.83c0-1.063.704-1.311 1.201-1.311h2.833a.212.212 0 0 0 .212-.213V3.67a.212.212 0 0 0-.212-.213l-3.981-.016c-4.656 0-5.715 3.485-5.715 5.715v3.115h-2.479a.213.213 0 0 0-.213.213v4.388c0 .118.095.213.213.213h2.479v13.413a.21.21 0 0 0 .213.211h5.236a.21.21 0 0 0 .213-.211V17.085h3.629a.214.214 0 0 0 .212-.192l.45-4.388z"/>
    </symbol>
    <symbol id="icon-inst" viewBox="0 0 32 32">
      <path d="M15.997 2.347c-3.708 0-4.173.016-5.629.082-1.453.066-2.446.297-3.314.635-.898.349-1.659.816-2.418 1.575S3.41 6.159 3.061 7.057c-.338.868-.568 1.861-.635 3.314-.066 1.456-.082 1.921-.082 5.629s.016 4.173.082 5.629c.066 1.453.297 2.446.635 3.314.349.898.816 1.659 1.575 2.418s1.52 1.226 2.418 1.575c.869.337 1.861.568 3.314.635 1.456.066 1.921.082 5.629.082s4.173-.016 5.629-.082c1.453-.066 2.446-.297 3.314-.635.898-.349 1.659-.816 2.418-1.575s1.226-1.52 1.575-2.418c.337-.869.568-1.861.635-3.314.066-1.456.082-1.921.082-5.629s-.016-4.173-.082-5.629c-.066-1.453-.297-2.446-.635-3.314-.349-.898-.816-1.659-1.575-2.418s-1.52-1.226-2.418-1.575c-.869-.338-1.861-.568-3.314-.635-1.456-.066-1.921-.082-5.629-.082zm0 2.46c3.646 0 4.077.014 5.517.08 1.331.061 2.054.283 2.535.47.637.248 1.092.544 1.57 1.021s.774.933 1.021 1.57c.187.481.409 1.204.47 2.535.066 1.44.08 1.871.08 5.517s-.014 4.077-.08 5.517c-.061 1.331-.283 2.054-.47 2.535-.248.637-.544 1.092-1.021 1.57s-.933.774-1.57 1.021c-.481.187-1.204.409-2.535.47-1.439.066-1.871.08-5.517.08s-4.078-.014-5.517-.08c-1.331-.061-2.054-.283-2.535-.47-.637-.248-1.092-.544-1.57-1.021s-.774-.933-1.021-1.57c-.187-.481-.409-1.204-.47-2.535-.066-1.44-.08-1.872-.08-5.517s.014-4.077.08-5.517c.061-1.331.283-2.054.47-2.535.248-.637.544-1.092 1.021-1.57s.933-.774 1.57-1.021c.481-.187 1.204-.409 2.535-.47 1.44-.066 1.872-.08 5.517-.08z"/>
      <path d="M15.995 20.551a4.55 4.55 0 1 1 0-9.102 4.55 4.55 0 0 1 0 9.102zm0-11.562a7.011 7.011 0 1 0 0 14.022 7.011 7.011 0 0 0 0-14.022zM24.925 8.712a1.638 1.638 0 1 1-3.275 0 1.638 1.638 0 0 1 3.275 0z"/>
    </symbol>
    <symbol id="icon-youtube" viewBox="0 0 32 32">
      <path d="M31.681 9.6s-.313-2.206-1.275-3.175C29.187 5.15 27.825 5.144 27.2 5.069c-4.475-.325-11.194-.325-11.194-.325h-.012s-6.719 0-11.194.325c-.625.075-1.987.081-3.206 1.356C.631 7.394.325 9.6.325 9.6s-.319 2.588-.319 5.181v2.425c0 2.587.319 5.181.319 5.181s.313 2.206 1.269 3.175c1.219 1.275 2.819 1.231 3.531 1.369 2.563.244 10.881.319 10.881.319s6.725-.012 11.2-.331c.625-.075 1.988-.081 3.206-1.356.962-.969 1.275-3.175 1.275-3.175s.319-2.587.319-5.181v-2.425c-.006-2.588-.325-5.181-.325-5.181zM12.694 20.15v-8.994l8.644 4.513-8.644 4.481z"/>
    </symbol>
  </defs>
</svg>
